<?xml version="1.0" encoding="iso-8859-1"?>
<!-- Uploaded to: SVG Repo, www.svgrepo.com, Generator: SVG Repo Mixer Tools -->
<svg fill="#000000" version="1.1" id="Layer_1" xmlns="http://www.w3.org/2000/svg" xmlns:xlink="http://www.w3.org/1999/xlink" 
	 viewBox="0 0 512 512" xml:space="preserve">
<g>
	<g>
		<path d="M16.912,0v63.3h374.565V0H16.912z M60.912,43.238H37.726V20.052h23.186V43.238z M102.635,43.238H79.449V20.052h23.186
			V43.238z"/>
	</g>
</g>
<g>
	<g>
		<path d="M16.912,160.893v63.3h374.565v-63.3H16.912z M60.912,204.131H37.726v-23.186h23.186V204.131z M102.635,204.131H79.449
			v-23.186h23.186V204.131z"/>
	</g>
</g>
<g>
	<g>
		<polygon points="364.695,94.647 349.022,94.647 59.366,94.647 43.692,94.647 28.019,94.647 28.019,129.546 43.692,129.546 
			59.366,129.546 349.022,129.546 364.695,129.546 380.369,129.546 380.369,94.647 		"/>
	</g>
</g>
<g>
	<g>
		<path d="M16.912,322.435v62.652h237.756c3.636-22.862,13.04-44.429,27.272-62.652H16.912z M60.912,366.54H37.726v-23.186h23.186
			V366.54z M102.635,366.54H79.449v-23.186h23.186V366.54z"/>
	</g>
</g>
<g>
	<g>
		<path d="M28.019,255.54v34.9H317.55v0c6.531-4.075,13.396-7.576,20.564-10.501c13.542-5.517,27.711-8.788,42.256-9.759V255.54
			H28.019z"/>
	</g>
</g>
<g>
	<g>
		<path d="M253.738,421.282c-0.178-1.609-0.313-3.229-0.428-4.848H28.019v66.247h248.08
			C263.842,464.394,256.089,443.298,253.738,421.282z"/>
	</g>
</g>
<g>
	<g>
		<rect x="369.915" y="411.261" width="36.53" height="25.924"/>
	</g>
</g>
<g>
	<g>
		<path d="M389.689,301.213c-14.064,0-27.481,2.759-39.748,7.753c-10.647,4.347-20.438,10.376-29.017,17.774
			c-0.24,0.198-0.481,0.408-0.711,0.616c-22.016,19.32-35.913,47.658-35.913,79.245c0,1.076,0.021,2.153,0.052,3.218
			c0.021,0.773,0.052,1.536,0.094,2.299c0.01,0.261,0.031,0.512,0.052,0.763c0.021,0.502,0.052,1.014,0.094,1.515
			c0.052,0.679,0.115,1.358,0.178,2.038c0.031,0.502,0.084,1.003,0.136,1.505c2.664,24.91,14.002,47.208,30.929,63.843
			c0.313,0.303,0.627,0.606,0.94,0.899c0.596,0.564,1.191,1.128,1.797,1.682c0.606,0.554,1.212,1.108,1.829,1.64
			c0.617,0.543,1.243,1.076,1.87,1.599c0.637,0.533,1.264,1.045,1.912,1.557c0.554,0.439,1.108,0.878,1.672,1.306
			c0.23,0.167,0.449,0.334,0.679,0.512c0.439,0.334,0.888,0.669,1.348,0.993c0.178,0.136,0.366,0.261,0.554,0.397
			c0.491,0.355,0.982,0.7,1.484,1.045c0.136,0.094,0.282,0.188,0.418,0.282c0.585,0.407,1.181,0.805,1.776,1.191
			c0.815,0.533,1.641,1.066,2.476,1.567c0.585,0.376,1.181,0.731,1.787,1.076c0.648,0.387,1.317,0.773,1.975,1.139
			c0.219,0.125,0.439,0.24,0.648,0.355c0.491,0.272,0.982,0.543,1.484,0.805c0.188,0.094,0.366,0.198,0.554,0.282
			c0.575,0.313,1.16,0.606,1.745,0.899c0.146,0.073,0.293,0.146,0.428,0.209c0.648,0.324,1.296,0.627,1.943,0.93
			c0.711,0.334,1.421,0.658,2.142,0.982c0.178,0.073,0.366,0.157,0.543,0.23c0.596,0.261,1.191,0.512,1.797,0.763
			c0.073,0.031,0.157,0.063,0.23,0.094c0.721,0.293,1.452,0.575,2.184,0.857c0.773,0.303,1.557,0.585,2.351,0.867
			c0.784,0.282,1.578,0.554,2.372,0.815c0.763,0.251,1.526,0.491,2.299,0.731c1.003,0.303,2.006,0.585,3.02,0.857
			c0.648,0.178,1.306,0.355,1.964,0.512c0.919,0.24,1.849,0.46,2.79,0.658c0.721,0.167,1.452,0.313,2.173,0.46
			c1.954,0.387,3.929,0.721,5.925,0.993c0.554,0.084,1.118,0.167,1.693,0.23c2.529,0.313,5.099,0.543,7.69,0.669
			c0.731,0.042,1.473,0.073,2.226,0.084c1.045,0.042,2.09,0.052,3.135,0.052c58.211,0,105.399-47.188,105.399-105.399
			C495.088,348.39,447.901,301.213,389.689,301.213z M437.797,468.532h-84.574h-14.649v-14.44v-74.177h10.365v-9.425
			c0-21.828,17.763-39.591,39.602-39.591c21.828,0,39.591,17.763,39.591,39.591v9.425h9.665V468.532z"/>
	</g>
</g>
<g>
	<g>
		<path d="M388.54,362.245c-4.556,0-8.255,3.699-8.255,8.244v9.425h16.499v-9.425C396.784,365.944,393.085,362.245,388.54,362.245z"
			/>
	</g>
</g>
</svg>